SplineFontDB: 3.2
FontName: LanaSmej
FullName: LanaSmej
FamilyName: LanaSmej
Weight: Book
Copyright: Copyright (c) 2024, Lana
Version: 001.000
ItalicAngle: 0
UnderlinePosition: -100
UnderlineWidth: 50
Ascent: 800
Descent: 200
InvalidEm: 0
sfntRevision: 0x00010000
LayerCount: 2
Layer: 0 1 "Back" 1
Layer: 1 1 "Fore" 0
XUID: [1021 135 -338468157 3057]
StyleMap: 0x0000
FSType: 0
OS2Version: 4
OS2_WeightWidthSlopeOnly: 0
OS2_UseTypoMetrics: 1
CreationTime: 1710427993
ModificationTime: 1717703003
PfmFamily: 17
TTFWeight: 400
TTFWidth: 5
LineGap: 90
VLineGap: 0
Panose: 2 0 5 3 0 0 0 0 0 0
OS2TypoAscent: 800
OS2TypoAOffset: 0
OS2TypoDescent: -200
OS2TypoDOffset: 0
OS2TypoLinegap: 90
OS2WinAscent: 1046
OS2WinAOffset: 0
OS2WinDescent: 217
OS2WinDOffset: 0
HheadAscent: 1046
HheadAOffset: 0
HheadDescent: -217
HheadDOffset: 0
OS2SubXSize: 650
OS2SubYSize: 700
OS2SubXOff: 0
OS2SubYOff: 140
OS2SupXSize: 650
OS2SupYSize: 700
OS2SupXOff: 0
OS2SupYOff: 480
OS2StrikeYSize: 49
OS2StrikeYPos: 258
OS2CapHeight: 794
OS2XHeight: 504
OS2Vendor: 'PfEd'
OS2CodePages: 00000001.00000000
OS2UnicodeRanges: 00000005.00000000.00000000.00000000
MarkAttachClasses: 1
DEI: 91125
ShortTable: cvt  2
  33
  633
EndShort
ShortTable: maxp 16
  1
  0
  23
  83
  2
  0
  0
  2
  0
  1
  1
  0
  64
  46
  0
  0
EndShort
LangName: 1033 "" "" "Regular" "FontForge 2.0 : LanaSmej : 11-4-2024" "" "Version 001.000"
GaspTable: 1 65535 2 0
Encoding: UnicodeBmp
UnicodeInterp: none
NameList: AGL For New Fonts
DisplaySize: -48
AntiAlias: 1
FitToEm: 0
WinInfo: 38 38 13
BeginChars: 65539 23

StartChar: .notdef
Encoding: 65536 -1 0
Width: 364
GlyphClass: 1
Flags: W
LayerCount: 2
Fore
SplineSet
33 0 m 1,0,-1
 33 666 l 1,1,-1
 298 666 l 1,2,-1
 298 0 l 1,3,-1
 33 0 l 1,0,-1
66 33 m 1,4,-1
 265 33 l 1,5,-1
 265 633 l 1,6,-1
 66 633 l 1,7,-1
 66 33 l 1,4,-1
EndSplineSet
EndChar

StartChar: L
Encoding: 76 76 4
Width: 622
GlyphClass: 1
Flags: W
LayerCount: 2
Fore
SplineSet
34 49 m 1,0,1
 58 49 58 49 74.5 55.5 c 128,-1,2
 91 62 91 62 99 69.5 c 128,-1,3
 107 77 107 77 111 93.5 c 128,-1,4
 115 110 115 110 115.5 119 c 128,-1,5
 116 128 116 128 116 149 c 0,6,7
 117 717 117 717 117 717 c 2,8,9
 117 727 117 727 113 734.5 c 128,-1,10
 109 742 109 742 100 746.5 c 128,-1,11
 91 751 91 751 85 754 c 128,-1,12
 79 757 79 757 65 759 c 128,-1,13
 51 761 51 761 48 761.5 c 128,-1,14
 45 762 45 762 32 763 c 1,15,-1
 32 790 l 1,16,-1
 305 790 l 1,17,-1
 305 762 l 1,18,19
 245 757 245 757 228 747 c 128,-1,20
 211 737 211 737 211 713 c 0,21,22
 210 149 210 149 210 149 c 2,23,24
 210 148 210 148 210 146 c 0,25,26
 210 130 210 130 212 119 c 128,-1,27
 214 108 214 108 223 89 c 128,-1,28
 232 70 232 70 256.5 59.5 c 128,-1,29
 281 49 281 49 320 49 c 2,30,-1
 453 49 l 2,31,32
 482 49 482 49 504.5 59.5 c 128,-1,33
 527 70 527 70 540.5 89.5 c 128,-1,34
 554 109 554 109 559.5 120.5 c 128,-1,35
 565 132 565 132 571 150 c 1,36,-1
 594 143 l 1,37,38
 580 70 580 70 549 0 c 1,39,-1
 34 0 l 1,40,-1
 34 49 l 1,0,1
EndSplineSet
EndChar

StartChar: S
Encoding: 83 83 5
Width: 435
GlyphClass: 1
Flags: W
LayerCount: 2
Fore
SplineSet
369 780 m 1,0,1
 307 796 307 796 252 800 c 128,-1,2
 197 804 197 804 156 796.5 c 128,-1,3
 115 789 115 789 82 773.5 c 128,-1,4
 49 758 49 758 28 735 c 128,-1,5
 7 712 7 712 -4.5 684 c 128,-1,6
 -16 656 -16 656 -17 625.5 c 128,-1,7
 -18 595 -18 595 -8.5 562.5 c 128,-1,8
 1 530 1 530 20 499 c 128,-1,9
 39 468 39 468 69 439 c 128,-1,10
 99 410 99 410 137 387 c 0,11,12
 307 284 307 284 319 178 c 0,13,14
 327 108 327 108 266 67 c 0,15,16
 205 27 205 27 132 47 c 0,17,18
 44 71 44 71 8 170 c 0,19,20
 -1 195 -1 195 -6 224 c 1,21,-1
 -31 212 l 1,22,-1
 -24 73 l 1,23,24
 -3 49 -3 49 35 30 c 128,-1,25
 73 11 73 11 119.5 1 c 128,-1,26
 166 -9 166 -9 215 -3 c 128,-1,27
 264 3 264 3 305 23 c 128,-1,28
 346 43 346 43 374.5 90.5 c 128,-1,29
 403 138 403 138 407 206 c 0,30,31
 409 248 409 248 399 280 c 128,-1,32
 389 312 389 312 365.5 336 c 128,-1,33
 342 360 342 360 320 375.5 c 128,-1,34
 298 391 298 391 261.5 413.5 c 128,-1,35
 225 436 225 436 205 451 c 0,36,37
 64 558 64 558 74 654 c 0,38,39
 80 716 80 716 144 746 c 0,40,41
 209 777 209 777 274 748 c 0,42,43
 350 713 350 713 363 613 c 1,44,-1
 389 620 l 1,45,-1
 369 780 l 1,0,1
EndSplineSet
EndChar

StartChar: V
Encoding: 86 86 6
Width: 800
GlyphClass: 1
Flags: W
LayerCount: 2
Fore
SplineSet
668 688 m 2,0,-1
 407 0 l 1,1,-1
 367 0 l 1,2,-1
 143 688 l 2,3,4
 121 755 121 755 44 769 c 0,5,6
 29 771 29 771 29 771 c 1,7,-1
 29 800 l 1,8,-1
 326 800 l 1,9,-1
 326 771 l 1,10,11
 324 771 324 771 322 771 c 128,-1,12
 320 771 320 771 312.5 770.5 c 128,-1,13
 305 770 305 770 298.5 768.5 c 128,-1,14
 292 767 292 767 282.5 764.5 c 128,-1,15
 273 762 273 762 267 758 c 128,-1,16
 261 754 261 754 253.5 748 c 128,-1,17
 246 742 246 742 243.5 733.5 c 128,-1,18
 241 725 241 725 239.5 714 c 128,-1,19
 238 703 238 703 243 688 c 2,20,-1
 409 162 l 1,21,-1
 604 688 l 2,22,23
 612 710 612 710 602.5 726.5 c 128,-1,24
 593 743 593 743 573.5 751 c 128,-1,25
 554 759 554 759 533 764 c 128,-1,26
 512 769 512 769 497 770 c 2,27,-1
 482 771 l 1,28,-1
 482 800 l 1,29,-1
 779 800 l 1,30,-1
 779 771 l 1,31,32
 750 771 750 771 716 748 c 128,-1,33
 682 725 682 725 668 688 c 2,0,-1
EndSplineSet
EndChar

StartChar: a
Encoding: 97 97 7
Width: 521
GlyphClass: 1
Flags: W
LayerCount: 2
Fore
SplineSet
331.815429688 94 m 1,0,1
 230.815429688 27 230.815429688 27 174.815429688 77 c 0,2,3
 137.815429688 111 137.815429688 111 142.815429688 167 c 0,4,5
 144.815429688 200 144.815429688 200 162.815429688 219 c 0,6,7
 204.815429688 262 204.815429688 262 333.815429688 269 c 0,8,9
 336.815429688 269 336.815429688 269 336.815429688 270 c 1,10,-1
 331.815429688 94 l 1,0,1
339.815429688 299 m 1,11,12
 128.815429688 297 128.815429688 297 60.8154296875 205 c 0,13,14
 17.8154296875 146 17.8154296875 146 50.8154296875 80 c 0,15,16
 80.8154296875 20 80.8154296875 20 147.815429688 2 c 0,17,18
 243.815429688 -24 243.815429688 -24 336.815429688 61 c 1,19,-1
 350.815429688 37 l 1,20,21
 403.815429688 -32 403.815429688 -32 475.815429688 18 c 0,22,23
 489.815429688 28 489.815429688 28 504.815429688 43 c 1,24,25
 496.815429688 58 496.815429688 58 496.815429688 58 c 1,26,27
 412.815429688 -8 412.815429688 -8 414.815429688 104 c 2,28,-1
 420.815429688 319 l 1,29,30
 426.815429688 375 426.815429688 375 408.815429688 415.5 c 128,-1,31
 390.815429688 456 390.815429688 456 358.315429688 475.5 c 128,-1,32
 325.815429688 495 325.815429688 495 284.315429688 501.5 c 128,-1,33
 242.815429688 508 242.815429688 508 202.315429688 500.5 c 128,-1,34
 161.815429688 493 161.815429688 493 126.315429688 475 c 128,-1,35
 90.8154296875 457 90.8154296875 457 71.8154296875 433 c 0,36,37
 38.8154296875 390 38.8154296875 390 55.8154296875 361 c 0,38,39
 63.8154296875 346 63.8154296875 346 82.3154296875 344.5 c 128,-1,40
 100.815429688 343 100.815429688 343 118.815429688 358.5 c 128,-1,41
 136.815429688 374 136.815429688 374 140.815429688 402 c 0,42,43
 149.815429688 451 149.815429688 451 197.815429688 468 c 0,44,45
 249.815429688 485 249.815429688 485 292.815429688 449 c 0,46,47
 348.815429688 403 348.815429688 403 339.815429688 299 c 1,11,12
EndSplineSet
EndChar

StartChar: e
Encoding: 101 101 8
Width: 339
GlyphClass: 1
Flags: W
LayerCount: 2
Fore
SplineSet
141.814453125 322 m 1,0,-1
 371.814453125 333 l 1,1,2
 373.814453125 346 373.814453125 346 368.314453125 368 c 128,-1,3
 362.814453125 390 362.814453125 390 350.314453125 414.5 c 128,-1,4
 337.814453125 439 337.814453125 439 311.314453125 455.5 c 128,-1,5
 284.814453125 472 284.814453125 472 249.814453125 468 c 0,6,7
 219.814453125 465 219.814453125 465 197.314453125 447.5 c 128,-1,8
 174.814453125 430 174.814453125 430 163.814453125 405 c 128,-1,9
 152.814453125 380 152.814453125 380 147.814453125 359.5 c 128,-1,10
 142.814453125 339 142.814453125 339 141.814453125 322 c 1,0,-1
456.814453125 341 m 256,11,12
 458.814453125 315 458.814453125 315 453.314453125 306 c 128,-1,13
 447.814453125 297 447.814453125 297 422.814453125 296 c 2,14,-1
 141.814453125 281 l 1,15,16
 139.814453125 218 139.814453125 218 155.814453125 168 c 128,-1,17
 171.814453125 118 171.814453125 118 202.314453125 91 c 128,-1,18
 232.814453125 64 232.814453125 64 270.814453125 56.5 c 128,-1,19
 308.814453125 49 308.814453125 49 353.814453125 71 c 128,-1,20
 398.814453125 93 398.814453125 93 441.814453125 141 c 1,21,-1
 453.814453125 122 l 1,22,23
 375.814453125 1 375.814453125 1 280.814453125 -2 c 0,24,25
 205.814453125 -4 205.814453125 -4 146.814453125 40.5 c 128,-1,26
 87.814453125 85 87.814453125 85 63.314453125 163 c 128,-1,27
 38.814453125 241 38.814453125 241 59.814453125 328 c 0,28,29
 69.814453125 370 69.814453125 370 88.314453125 402.5 c 128,-1,30
 106.814453125 435 106.814453125 435 126.814453125 453 c 128,-1,31
 146.814453125 471 146.814453125 471 170.814453125 482.5 c 128,-1,32
 194.814453125 494 194.814453125 494 212.814453125 497.5 c 128,-1,33
 230.814453125 501 230.814453125 501 248.814453125 502 c 0,34,35
 299.814453125 505 299.814453125 505 340.814453125 489.5 c 128,-1,36
 381.814453125 474 381.814453125 474 405.314453125 448 c 128,-1,37
 428.814453125 422 428.814453125 422 441.814453125 394.5 c 128,-1,38
 454.814453125 367 454.814453125 367 456.814453125 341 c 256,11,12
EndSplineSet
EndChar

StartChar: j
Encoding: 106 106 9
Width: 395
GlyphClass: 1
Flags: W
LayerCount: 2
Fore
SplineSet
259.444335938 726.5 m 128,-1,1
 259.444335938 750 259.444335938 750 275.944335938 766.5 c 128,-1,2
 292.444335938 783 292.444335938 783 315.944335938 783 c 128,-1,3
 339.444335938 783 339.444335938 783 355.944335938 766.5 c 128,-1,4
 372.444335938 750 372.444335938 750 372.444335938 726.5 c 128,-1,5
 372.444335938 703 372.444335938 703 355.944335938 686.5 c 128,-1,6
 339.444335938 670 339.444335938 670 315.944335938 670 c 128,-1,7
 292.444335938 670 292.444335938 670 275.944335938 686.5 c 128,-1,0
 259.444335938 703 259.444335938 703 259.444335938 726.5 c 128,-1,1
177.444335938 442 m 1,8,9
 178.444335938 442 178.444335938 442 195.944335938 446.5 c 128,-1,10
 213.444335938 451 213.444335938 451 231.944335938 456 c 128,-1,11
 250.444335938 461 250.444335938 461 274.944335938 468.5 c 128,-1,12
 299.444335938 476 299.444335938 476 323.944335938 486 c 128,-1,13
 348.444335938 496 348.444335938 496 367.444335938 506 c 1,14,-1
 368.444335938 107 l 2,15,16
 368.444335938 -58 368.444335938 -58 217.444335938 -187 c 0,17,18
 215.444335938 -189 215.444335938 -189 213.444335938 -190 c 0,19,20
 183.444335938 -216 183.444335938 -216 157.444335938 -192 c 0,21,22
 134.444335938 -173 134.444335938 -173 142.444335938 -147 c 0,23,24
 147.444335938 -133 147.444335938 -133 162.444335938 -125 c 0,25,26
 172.444335938 -120 172.444335938 -120 191.944335938 -116 c 128,-1,27
 211.444335938 -112 211.444335938 -112 225.444335938 -107 c 128,-1,28
 239.444335938 -102 239.444335938 -102 253.944335938 -90 c 128,-1,29
 268.444335938 -78 268.444335938 -78 275.944335938 -50.5 c 128,-1,30
 283.444335938 -23 283.444335938 -23 282.444335938 18 c 2,31,-1
 280.444335938 371 l 2,32,33
 280.444335938 382 280.444335938 382 276.444335938 390 c 128,-1,34
 272.444335938 398 272.444335938 398 267.944335938 402 c 128,-1,35
 263.444335938 406 263.444335938 406 254.444335938 408 c 128,-1,36
 245.444335938 410 245.444335938 410 240.444335938 410 c 128,-1,37
 235.444335938 410 235.444335938 410 224.444335938 410 c 0,38,39
 214.444335938 410 214.444335938 410 199.944335938 409.5 c 128,-1,40
 185.444335938 409 185.444335938 409 177.444335938 409 c 1,41,-1
 177.444335938 442 l 1,8,9
EndSplineSet
EndChar

StartChar: m
Encoding: 109 109 10
Width: 808
GlyphClass: 1
Flags: W
LayerCount: 2
Fore
SplineSet
42.814453125 435 m 1,0,1
 88.814453125 440 88.814453125 440 88.814453125 402 c 0,2,3
 88.814453125 352 88.814453125 352 89.314453125 262.5 c 128,-1,4
 89.814453125 173 89.814453125 173 88.814453125 67 c 1,5,6
 82.814453125 27 82.814453125 27 42.814453125 24 c 1,7,-1
 42.814453125 1 l 1,8,9
 53.814453125 1 53.814453125 1 97.314453125 1 c 128,-1,10
 140.814453125 1 140.814453125 1 179.814453125 0.5 c 128,-1,11
 218.814453125 0 218.814453125 0 218.814453125 0 c 1,12,-1
 218.814453125 24 l 1,13,14
 216.814453125 24 216.814453125 24 213.814453125 24 c 128,-1,15
 210.814453125 24 210.814453125 24 202.814453125 26.5 c 128,-1,16
 194.814453125 29 194.814453125 29 188.814453125 33 c 128,-1,17
 182.814453125 37 182.814453125 37 177.814453125 47 c 128,-1,18
 172.814453125 57 172.814453125 57 172.814453125 71 c 2,19,-1
 171.814453125 348 l 2,20,21
 171.814453125 381 171.814453125 381 192.814453125 405.5 c 128,-1,22
 213.814453125 430 213.814453125 430 244.314453125 437 c 128,-1,23
 274.814453125 444 274.814453125 444 304.814453125 439.5 c 128,-1,24
 334.814453125 435 334.814453125 435 356.314453125 410.5 c 128,-1,25
 377.814453125 386 377.814453125 386 377.814453125 348 c 2,26,-1
 376.814453125 74 l 1,27,28
 371.814453125 30 371.814453125 30 334.814453125 24 c 1,29,-1
 334.814453125 0 l 1,30,-1
 504.814453125 0 l 1,31,-1
 504.814453125 24 l 2,32,33
 504.814453125 25 504.814453125 25 500.314453125 24 c 128,-1,34
 495.814453125 23 495.814453125 23 489.314453125 25.5 c 128,-1,35
 482.814453125 28 482.814453125 28 476.314453125 32 c 128,-1,36
 469.814453125 36 469.814453125 36 465.314453125 47 c 128,-1,37
 460.814453125 58 460.814453125 58 460.814453125 74 c 2,38,-1
 459.814453125 348 l 2,39,40
 459.814453125 381 459.814453125 381 480.814453125 404 c 128,-1,41
 501.814453125 427 501.814453125 427 531.814453125 433 c 128,-1,42
 561.814453125 439 561.814453125 439 591.314453125 434 c 128,-1,43
 620.814453125 429 620.814453125 429 641.814453125 404.5 c 128,-1,44
 662.814453125 380 662.814453125 380 662.814453125 344 c 0,45,46
 663.814453125 74 663.814453125 74 663.814453125 74 c 2,47,48
 664.814453125 51 664.814453125 51 654.814453125 38 c 128,-1,49
 644.814453125 25 644.814453125 25 635.814453125 23 c 2,50,-1
 625.814453125 22 l 1,51,-1
 625.814453125 0 l 1,52,-1
 790.814453125 0 l 1,53,-1
 790.814453125 24 l 1,54,55
 788.814453125 24 788.814453125 24 785.814453125 24 c 128,-1,56
 782.814453125 24 782.814453125 24 775.314453125 26.5 c 128,-1,57
 767.814453125 29 767.814453125 29 762.314453125 33.5 c 128,-1,58
 756.814453125 38 756.814453125 38 751.814453125 48.5 c 128,-1,59
 746.814453125 59 746.814453125 59 746.814453125 74 c 2,60,-1
 745.814453125 383 l 2,61,62
 745.814453125 421 745.814453125 421 723.814453125 450.5 c 128,-1,63
 701.814453125 480 701.814453125 480 667.314453125 492.5 c 128,-1,64
 632.814453125 505 632.814453125 505 593.814453125 504 c 128,-1,65
 554.814453125 503 554.814453125 503 517.314453125 479 c 128,-1,66
 479.814453125 455 479.814453125 455 455.814453125 412 c 1,67,68
 440.814453125 455 440.814453125 455 408.814453125 479 c 128,-1,69
 376.814453125 503 376.814453125 503 340.314453125 504.5 c 128,-1,70
 303.814453125 506 303.814453125 506 268.314453125 495.5 c 128,-1,71
 232.814453125 485 232.814453125 485 206.314453125 462.5 c 128,-1,72
 179.814453125 440 179.814453125 440 171.814453125 413 c 1,73,-1
 172.814453125 504 l 1,74,75
 147.814453125 476 147.814453125 476 42.814453125 458 c 1,76,-1
 42.814453125 435 l 1,0,1
EndSplineSet
EndChar

StartChar: n
Encoding: 110 110 11
Width: 559
GlyphClass: 1
Flags: W
LayerCount: 2
Fore
SplineSet
47.814453125 436 m 1,0,1
 74.814453125 437 74.814453125 437 85.314453125 430.5 c 128,-1,2
 95.814453125 424 95.814453125 424 95.814453125 405 c 0,3,4
 95.814453125 351 95.814453125 351 96.314453125 266.5 c 128,-1,5
 96.814453125 182 96.814453125 182 96.814453125 70 c 0,6,7
 95.814453125 48 95.814453125 48 83.814453125 37 c 128,-1,8
 71.814453125 26 71.814453125 26 59.814453125 24.5 c 128,-1,9
 47.814453125 23 47.814453125 23 47.814453125 24 c 1,10,-1
 46.814453125 0 l 1,11,-1
 100.814453125 0 l 1,12,-1
 190.814453125 0 l 1,13,-1
 228.814453125 0 l 1,14,-1
 228.814453125 24 l 1,15,16
 228.814453125 22 228.814453125 22 216.314453125 24.5 c 128,-1,17
 203.814453125 27 203.814453125 27 191.314453125 39 c 128,-1,18
 178.814453125 51 178.814453125 51 178.814453125 74 c 2,19,-1
 178.814453125 352 l 2,20,21
 178.814453125 387 178.814453125 387 200.814453125 412 c 128,-1,22
 222.814453125 437 222.814453125 437 254.814453125 444 c 128,-1,23
 286.814453125 451 286.814453125 451 318.814453125 445.5 c 128,-1,24
 350.814453125 440 350.814453125 440 372.814453125 414 c 128,-1,25
 394.814453125 388 394.814453125 388 394.814453125 347 c 2,26,-1
 394.814453125 74 l 1,27,28
 387.814453125 29 387.814453125 29 349.814453125 24 c 1,29,-1
 349.814453125 0 l 1,30,-1
 394.814453125 0 l 1,31,-1
 494.814453125 0 l 1,32,-1
 524.814453125 0 l 1,33,-1
 524.814453125 25 l 1,34,35
 522.814453125 24 522.814453125 24 519.314453125 24.5 c 128,-1,36
 515.814453125 25 515.814453125 25 507.814453125 27.5 c 128,-1,37
 499.814453125 30 499.814453125 30 493.814453125 35 c 128,-1,38
 487.814453125 40 487.814453125 40 482.814453125 52 c 128,-1,39
 477.814453125 64 477.814453125 64 477.814453125 80 c 2,40,-1
 476.814453125 366 l 2,41,42
 476.814453125 483 476.814453125 483 377.814453125 501 c 0,43,44
 306.814453125 514 306.814453125 514 230.814453125 476 c 0,45,46
 179.814453125 450 179.814453125 450 179.814453125 426 c 0,47,48
 179.814453125 425 179.814453125 425 179.814453125 424 c 1,49,-1
 179.814453125 504 l 1,50,51
 113.814453125 471 113.814453125 471 47.814453125 461 c 1,52,-1
 47.814453125 436 l 1,0,1
EndSplineSet
EndChar

StartChar: o
Encoding: 111 111 12
Width: 335
GlyphClass: 1
Flags: W
LayerCount: 2
Fore
SplineSet
-60 244 m 0,0,1
 -53 148 -53 148 -12.5 88.5 c 128,-1,2
 28 29 28 29 93 34 c 0,3,4
 159 39 159 39 189.5 103.5 c 128,-1,5
 220 168 220 168 213 265 c 0,6,7
 205 361 205 361 163.5 419.5 c 128,-1,8
 122 478 122 478 57 472 c 0,9,10
 -9 466 -9 466 -38.5 403.5 c 128,-1,11
 -68 341 -68 341 -60 244 c 0,0,1
-155 260 m 0,12,13
 -155 367 -155 367 -89 436.5 c 128,-1,14
 -23 506 -23 506 76 506 c 128,-1,15
 175 506 175 506 241 436.5 c 128,-1,16
 307 367 307 367 307 260 c 0,17,18
 307 151 307 151 240.5 75.5 c 128,-1,19
 174 0 174 0 76.5 0 c 128,-1,20
 -21 0 -21 0 -88 76 c 128,-1,21
 -155 152 -155 152 -155 260 c 0,12,13
EndSplineSet
EndChar

StartChar: Scaron
Encoding: 352 352 13
Width: 510
GlyphClass: 1
Flags: W
LayerCount: 2
Fore
SplineSet
112 1046 m 1,0,-1
 250 949 l 1,1,-1
 389 1045 l 1,2,-1
 402 1014 l 1,3,-1
 250 876 l 1,4,-1
 100 1013 l 1,5,-1
 112 1046 l 1,0,-1
435 780 m 1,6,7
 373 796 373 796 318 800 c 128,-1,8
 263 804 263 804 222 796.5 c 128,-1,9
 181 789 181 789 148 773.5 c 128,-1,10
 115 758 115 758 94 735 c 128,-1,11
 73 712 73 712 61.5 684 c 128,-1,12
 50 656 50 656 49.5 625.5 c 128,-1,13
 49 595 49 595 58 562.5 c 128,-1,14
 67 530 67 530 86 499 c 128,-1,15
 105 468 105 468 135 439 c 128,-1,16
 165 410 165 410 203 387 c 0,17,18
 373 284 373 284 385 178 c 0,19,20
 393 108 393 108 332 67 c 0,21,22
 271 27 271 27 198 47 c 0,23,24
 110 71 110 71 74 170 c 0,25,26
 65 195 65 195 60 224 c 1,27,-1
 35 212 l 1,28,-1
 42 73 l 1,29,30
 63 49 63 49 101.5 30 c 128,-1,31
 140 11 140 11 186 1 c 128,-1,32
 232 -9 232 -9 281 -3 c 128,-1,33
 330 3 330 3 371 23 c 128,-1,34
 412 43 412 43 440.5 90.5 c 128,-1,35
 469 138 469 138 473 206 c 0,36,37
 476 248 476 248 465.5 280 c 128,-1,38
 455 312 455 312 431.5 336 c 128,-1,39
 408 360 408 360 386 375.5 c 128,-1,40
 364 391 364 391 327.5 413.5 c 128,-1,41
 291 436 291 436 271 451 c 0,42,43
 130 558 130 558 140 654 c 0,44,45
 147 716 147 716 210 746 c 0,46,47
 276 777 276 777 340 748 c 0,48,49
 417 713 417 713 429 613 c 1,50,-1
 455 620 l 1,51,-1
 435 780 l 1,6,7
EndSplineSet
EndChar

StartChar: Zcaron
Encoding: 381 381 14
Width: 744
GlyphClass: 1
Flags: W
LayerCount: 2
Fore
SplineSet
237 1046 m 1,0,-1
 375 949 l 1,1,-1
 514 1045 l 1,2,-1
 527 1014 l 1,3,-1
 375 876 l 1,4,-1
 225 1013 l 1,5,-1
 237 1046 l 1,0,-1
97 800 m 1,6,-1
 653 800 l 1,7,-1
 197 53 l 1,8,-1
 479 53 l 2,9,10
 551 53 551 53 585 81.5 c 128,-1,11
 619 110 619 110 657 210 c 1,12,-1
 685 202 l 1,13,-1
 649 0 l 1,14,-1
 43 0 l 1,15,-1
 509 746 l 1,16,-1
 248 746 l 2,17,18
 244 746 244 746 236 746 c 0,19,20
 213 746 213 746 203.5 746 c 128,-1,21
 194 746 194 746 180 740.5 c 128,-1,22
 166 735 166 735 162 731 c 128,-1,23
 158 727 158 727 145.5 708 c 128,-1,24
 133 689 133 689 126 673 c 128,-1,25
 119 657 119 657 101 618 c 1,26,-1
 68 621 l 1,27,-1
 97 800 l 1,6,-1
EndSplineSet
EndChar

StartChar: scaron
Encoding: 353 353 15
Width: 373
GlyphClass: 1
Flags: W
LayerCount: 2
Fore
SplineSet
105 710 m 1,0,-1
 193 624 l 1,1,-1
 282 710 l 1,2,-1
 295 678 l 1,3,-1
 193 558 l 1,4,-1
 93 678 l 1,5,-1
 105 710 l 1,0,-1
318 487 m 1,6,7
 192 536 192 536 111 481 c 0,8,9
 54 442 54 442 53 377 c 0,10,11
 51 304 51 304 121 260 c 0,12,13
 129 255 129 255 137 251 c 0,14,15
 226 205 226 205 260 173 c 128,-1,16
 294 141 294 141 282 101 c 0,17,18
 274 71 274 71 250.5 53 c 128,-1,19
 227 35 227 35 198.5 34.5 c 128,-1,20
 170 34 170 34 142 44.5 c 128,-1,21
 114 55 114 55 92 84 c 128,-1,22
 70 113 70 113 64 152 c 1,23,-1
 42 141 l 1,24,-1
 52 48 l 1,25,26
 68 30 68 30 102.5 16 c 128,-1,27
 137 2 137 2 178.5 -0.5 c 128,-1,28
 220 -3 220 -3 258.5 6.5 c 128,-1,29
 297 16 297 16 323 49 c 128,-1,30
 349 82 349 82 350 133 c 0,31,32
 350 147 350 147 348.5 159.5 c 128,-1,33
 347 172 347 172 341.5 182.5 c 128,-1,34
 336 193 336 193 332.5 201 c 128,-1,35
 329 209 329 209 318 218 c 128,-1,36
 307 227 307 227 303 231.5 c 128,-1,37
 299 236 299 236 283.5 244.5 c 128,-1,38
 268 253 268 253 264 255.5 c 128,-1,39
 260 258 260 258 242 267.5 c 128,-1,40
 224 277 224 277 221 278 c 0,41,42
 119 331 119 331 121 397 c 0,43,44
 122 441 122 441 167 464 c 0,45,46
 216 490 216 490 260 459 c 0,47,48
 298 433 298 433 310 371 c 1,49,-1
 330 376 l 1,50,-1
 318 487 l 1,6,7
EndSplineSet
EndChar

StartChar: zcaron
Encoding: 382 382 16
Width: 504
GlyphClass: 1
Flags: W
LayerCount: 2
Fore
SplineSet
174 710 m 1,0,-1
 262 624 l 1,1,-1
 351 710 l 1,2,-1
 364 678 l 1,3,-1
 262 558 l 1,4,-1
 162 678 l 1,5,-1
 174 710 l 1,0,-1
72 504 m 1,6,-1
 440 504 l 1,7,-1
 142 49 l 1,8,-1
 291 49 l 2,9,10
 315 49 315 49 323.5 49.5 c 128,-1,11
 332 50 332 50 349.5 54.5 c 128,-1,12
 367 59 367 59 377.5 69.5 c 128,-1,13
 388 80 388 80 404 99 c 128,-1,14
 420 118 420 118 439 149 c 1,15,-1
 465 141 l 1,16,-1
 406 0 l 1,17,-1
 23 0 l 1,18,-1
 330 459 l 1,19,-1
 213 459 l 2,20,21
 204 459 204 459 189 459 c 0,22,23
 130 459 130 459 115 451 c 0,24,25
 102 442 102 442 75 397 c 0,26,27
 64 379 64 379 58 369 c 1,28,-1
 32 373 l 1,29,-1
 72 504 l 1,6,-1
EndSplineSet
EndChar

StartChar: Cacute
Encoding: 262 262 17
Width: 793
GlyphClass: 1
Flags: W
LayerCount: 2
Fore
SplineSet
379 931 m 1,0,-1
 588 1043 l 1,1,-1
 604 1018 l 1,2,-1
 416 870 l 1,3,-1
 379 931 l 1,0,-1
707 609 m 1,4,-1
 738 616 l 1,5,-1
 717 748 l 1,6,7
 526 825 526 825 384.5 791 c 128,-1,8
 243 757 243 757 161 647.5 c 128,-1,9
 79 538 79 538 78 390 c 0,10,11
 77 315 77 315 102 248 c 128,-1,12
 127 181 127 181 170.5 131.5 c 128,-1,13
 214 82 214 82 276 49.5 c 128,-1,14
 338 17 338 17 407.5 6 c 128,-1,15
 477 -5 477 -5 558 9 c 128,-1,16
 639 23 639 23 717 64 c 1,17,-1
 738 207 l 1,18,-1
 705 217 l 1,19,20
 664 136 664 136 607.5 93 c 128,-1,21
 551 50 551 50 494 47 c 128,-1,22
 437 44 437 44 380 70.5 c 128,-1,23
 323 97 323 97 279 146.5 c 128,-1,24
 235 196 235 196 207 266 c 128,-1,25
 179 336 179 336 178 413 c 0,26,27
 177 481 177 481 202.5 545 c 128,-1,28
 228 609 228 609 269.5 656 c 128,-1,29
 311 703 311 703 367 730 c 128,-1,30
 423 757 423 757 480.5 757 c 128,-1,31
 538 757 538 757 598.5 720 c 128,-1,32
 659 683 659 683 707 609 c 1,4,-1
EndSplineSet
EndChar

StartChar: Ccaron
Encoding: 268 268 18
Width: 763
GlyphClass: 1
Flags: W
LayerCount: 2
Fore
SplineSet
285 1046 m 1,0,-1
 423 949 l 1,1,-1
 562 1045 l 1,2,-1
 575 1014 l 1,3,-1
 423 876 l 1,4,-1
 273 1013 l 1,5,-1
 285 1046 l 1,0,-1
676 609 m 1,6,-1
 707 616 l 1,7,-1
 686 748 l 1,8,9
 495 825 495 825 353.5 791 c 128,-1,10
 212 757 212 757 130.5 647.5 c 128,-1,11
 49 538 49 538 47 390 c 0,12,13
 46 315 46 315 71 248 c 128,-1,14
 96 181 96 181 139.5 131.5 c 128,-1,15
 183 82 183 82 245 49.5 c 128,-1,16
 307 17 307 17 376.5 6 c 128,-1,17
 446 -5 446 -5 527 9 c 128,-1,18
 608 23 608 23 687 64 c 1,19,-1
 707 207 l 1,20,-1
 674 217 l 1,21,22
 633 136 633 136 576.5 93 c 128,-1,23
 520 50 520 50 463 47 c 128,-1,24
 406 44 406 44 349 70.5 c 128,-1,25
 292 97 292 97 248 146.5 c 128,-1,26
 204 196 204 196 176 266 c 128,-1,27
 148 336 148 336 147 413 c 0,28,29
 146 481 146 481 171.5 545 c 128,-1,30
 197 609 197 609 238.5 656 c 128,-1,31
 280 703 280 703 336 730 c 128,-1,32
 392 757 392 757 449.5 757 c 128,-1,33
 507 757 507 757 567.5 720 c 128,-1,34
 628 683 628 683 676 609 c 1,6,-1
EndSplineSet
EndChar

StartChar: Dcroat
Encoding: 272 272 19
Width: 875
GlyphClass: 1
Flags: W
LayerCount: 2
Fore
SplineSet
259 610 m 2,0,1
 259 620 259 620 259 639 c 0,2,3
 259 657 259 657 258.5 672 c 128,-1,4
 258 687 258 687 260 699 c 128,-1,5
 262 711 262 711 264 720 c 128,-1,6
 266 729 266 729 271.5 735.5 c 128,-1,7
 277 742 277 742 284.5 746.5 c 128,-1,8
 292 751 292 751 304 753.5 c 128,-1,9
 316 756 316 756 331 757 c 128,-1,10
 346 758 346 758 367 758 c 0,11,12
 433 758 433 758 491 737 c 128,-1,13
 549 716 549 716 595.5 675 c 128,-1,14
 642 634 642 634 669.5 567 c 128,-1,15
 697 500 697 500 699 415 c 0,16,17
 700 344 700 344 686 285.5 c 128,-1,18
 672 227 672 227 649 189.5 c 128,-1,19
 626 152 626 152 593.5 123.5 c 128,-1,20
 561 95 561 95 530.5 80.5 c 128,-1,21
 500 66 500 66 465 57 c 128,-1,22
 430 48 430 48 408.5 46 c 128,-1,23
 387 44 387 44 367 44 c 0,24,25
 343 44 343 44 330.5 45 c 128,-1,26
 318 46 318 46 302 50.5 c 128,-1,27
 286 55 286 55 278 63.5 c 128,-1,28
 270 72 270 72 264.5 88.5 c 128,-1,29
 259 105 259 105 259 129 c 2,30,-1
 259 381 l 1,31,-1
 413 381 l 1,32,-1
 413 426 l 1,33,-1
 259 426 l 1,34,-1
 259 610 l 2,0,1
78 801 m 1,35,-1
 78 769 l 1,36,37
 119 769 119 769 141.5 741.5 c 128,-1,38
 164 714 164 714 164 638 c 2,39,-1
 164 426 l 1,40,-1
 78 426 l 1,41,-1
 78 381 l 1,42,-1
 165 381 l 1,43,-1
 166 142 l 2,44,45
 166 113 166 113 160 91.5 c 128,-1,46
 154 70 154 70 146 59 c 128,-1,47
 138 48 138 48 124.5 41.5 c 128,-1,48
 111 35 111 35 103.5 34 c 128,-1,49
 96 33 96 33 82 31 c 0,50,51
 79 31 79 31 78 31 c 1,52,-1
 78 0 l 1,53,-1
 297 0 l 2,54,55
 350 0 350 0 381.5 0.5 c 128,-1,56
 413 1 413 1 462 5 c 128,-1,57
 511 9 511 9 541.5 16.5 c 128,-1,58
 572 24 572 24 612.5 38.5 c 128,-1,59
 653 53 653 53 677.5 73.5 c 128,-1,60
 702 94 702 94 729 125.5 c 128,-1,61
 756 157 756 157 770 197.5 c 128,-1,62
 784 238 784 238 793 293 c 128,-1,63
 802 348 802 348 800 415 c 0,64,65
 798 476 798 476 787 526.5 c 128,-1,66
 776 577 776 577 760.5 614 c 128,-1,67
 745 651 745 651 717.5 680 c 128,-1,68
 690 709 690 709 666.5 728 c 128,-1,69
 643 747 643 747 604 760.5 c 128,-1,70
 565 774 565 774 538.5 781 c 128,-1,71
 512 788 512 788 466 792.5 c 128,-1,72
 420 797 420 797 395.5 798 c 128,-1,73
 371 799 371 799 325 800 c 0,74,75
 295 801 295 801 281 801 c 2,76,-1
 78 801 l 1,35,-1
EndSplineSet
EndChar

StartChar: cacute
Encoding: 263 263 20
Width: 457
GlyphClass: 1
Flags: W
LayerCount: 2
Fore
SplineSet
246 558 m 1,0,-1
 347 690 l 1,1,-1
 324 710 l 1,2,-1
 205 600 l 1,3,-1
 246 558 l 1,0,-1
417 365 m 1,4,-1
 436 370 l 1,5,-1
 426 462 l 1,6,7
 368 493 368 493 308 501.5 c 128,-1,8
 248 510 248 510 197.5 494.5 c 128,-1,9
 147 479 147 479 108 445.5 c 128,-1,10
 69 412 69 412 48 357 c 128,-1,11
 27 302 27 302 31 235 c 0,12,13
 34 160 34 160 71.5 104 c 128,-1,14
 109 48 109 48 164.5 22 c 128,-1,15
 220 -4 220 -4 290 1.5 c 128,-1,16
 360 7 360 7 425 49 c 1,17,-1
 438 146 l 1,18,-1
 416 150 l 1,19,20
 392 101 392 101 358.5 72 c 128,-1,21
 325 43 325 43 292.5 36.5 c 128,-1,22
 260 30 260 30 227 42 c 128,-1,23
 194 54 194 54 169.5 81.5 c 128,-1,24
 145 109 145 109 129.5 152 c 128,-1,25
 114 195 114 195 113 246 c 0,26,27
 113 299 113 299 128 343 c 128,-1,28
 143 387 143 387 167 415.5 c 128,-1,29
 191 444 191 444 223.5 457.5 c 128,-1,30
 256 471 256 471 289 467 c 128,-1,31
 322 463 322 463 356 437 c 128,-1,32
 390 411 390 411 417 365 c 1,4,-1
EndSplineSet
EndChar

StartChar: ccaron
Encoding: 269 269 21
Width: 457
GlyphClass: 1
Flags: W
LayerCount: 2
Fore
SplineSet
171 710 m 1,0,-1
 259 624 l 1,1,-1
 348 710 l 1,2,-1
 361 678 l 1,3,-1
 259 558 l 1,4,-1
 159 678 l 1,5,-1
 171 710 l 1,0,-1
417 367 m 1,6,-1
 437 370 l 1,7,-1
 426 462 l 1,8,9
 368 493 368 493 308 501.5 c 128,-1,10
 248 510 248 510 197.5 494.5 c 128,-1,11
 147 479 147 479 107.5 445.5 c 128,-1,12
 68 412 68 412 47.5 357 c 128,-1,13
 27 302 27 302 30 235 c 0,14,15
 34 160 34 160 71 104 c 128,-1,16
 108 48 108 48 163.5 22 c 128,-1,17
 219 -4 219 -4 288.5 1.5 c 128,-1,18
 358 7 358 7 424 49 c 1,19,-1
 436 146 l 1,20,-1
 415 149 l 1,21,22
 390 100 390 100 357 71 c 128,-1,23
 324 42 324 42 291.5 36 c 128,-1,24
 259 30 259 30 226.5 42 c 128,-1,25
 194 54 194 54 169.5 81.5 c 128,-1,26
 145 109 145 109 129.5 152.5 c 128,-1,27
 114 196 114 196 113 247 c 128,-1,28
 112 298 112 298 126.5 342 c 128,-1,29
 141 386 141 386 165.5 414.5 c 128,-1,30
 190 443 190 443 222.5 457 c 128,-1,31
 255 471 255 471 288.5 467.5 c 128,-1,32
 322 464 322 464 356 438.5 c 128,-1,33
 390 413 390 413 417 367 c 1,6,-1
EndSplineSet
EndChar

StartChar: dcroat
Encoding: 273 273 22
Width: 594
GlyphClass: 1
Flags: W
LayerCount: 2
Fore
SplineSet
561 41 m 1,0,-1
 561 76 l 1,1,2
 535 78 535 78 521 79 c 128,-1,3
 507 80 507 80 495 86.5 c 128,-1,4
 483 93 483 93 478.5 97.5 c 128,-1,5
 474 102 474 102 470.5 119 c 128,-1,6
 467 136 467 136 467 149 c 128,-1,7
 467 162 467 162 467 194 c 2,8,-1
 467 624 l 1,9,-1
 546 624 l 1,10,-1
 546 669 l 1,11,-1
 467 669 l 1,12,-1
 468 897 l 1,13,14
 449 886 449 886 424 876 c 128,-1,15
 399 866 399 866 375 858.5 c 128,-1,16
 351 851 351 851 332.5 846 c 128,-1,17
 314 841 314 841 296.5 837 c 128,-1,18
 279 833 279 833 278 833 c 1,19,-1
 278 800 l 1,20,21
 286 800 286 800 300.5 800.5 c 128,-1,22
 315 801 315 801 325 801 c 256,23,24
 335 801 335 801 340 800.5 c 128,-1,25
 345 800 345 800 353.5 798 c 128,-1,26
 362 796 362 796 366 792.5 c 128,-1,27
 370 789 370 789 373.5 781 c 128,-1,28
 377 773 377 773 377 762 c 2,29,-1
 377 669 l 1,30,-1
 225 669 l 1,31,-1
 225 624 l 1,32,-1
 377 624 l 1,33,-1
 377 489 l 1,34,35
 268 515 268 515 193 497 c 128,-1,36
 118 479 118 479 75 429 c 128,-1,37
 32 379 32 379 17 320.5 c 128,-1,38
 2 262 2 262 12 207 c 0,39,40
 22 151 22 151 46.5 108 c 128,-1,41
 71 65 71 65 102 41 c 128,-1,42
 133 17 133 17 166.5 6 c 128,-1,43
 200 -5 200 -5 232 -2 c 0,44,45
 240 -1 240 -1 249 1.5 c 128,-1,46
 258 4 258 4 269.5 9 c 128,-1,47
 281 14 281 14 289.5 18 c 128,-1,48
 298 22 298 22 312 29.5 c 128,-1,49
 326 37 326 37 333.5 41.5 c 128,-1,50
 341 46 341 46 356.5 55 c 128,-1,51
 372 64 372 64 377 67 c 1,52,-1
 377 -2 l 1,53,54
 387 1 387 1 408.5 7 c 128,-1,55
 430 13 430 13 441.5 16 c 128,-1,56
 453 19 453 19 472.5 23.5 c 128,-1,57
 492 28 492 28 513 32.5 c 128,-1,58
 534 37 534 37 561 41 c 1,0,-1
377 392 m 1,59,60
 377 121 377 121 377 121 c 2,61,62
 377 120 377 120 364 108.5 c 128,-1,63
 351 97 351 97 324.5 82.5 c 128,-1,64
 298 68 298 68 271 63 c 0,65,66
 231 56 231 56 197 72.5 c 128,-1,67
 163 89 163 89 142 119.5 c 128,-1,68
 121 150 121 150 109 186 c 128,-1,69
 97 222 97 222 95 256 c 0,70,71
 93 261 93 261 95 276.5 c 128,-1,72
 97 292 97 292 98 312 c 128,-1,73
 99 332 99 332 108 355.5 c 128,-1,74
 117 379 117 379 129.5 399.5 c 128,-1,75
 142 420 142 420 166.5 436.5 c 128,-1,76
 191 453 191 453 223 459 c 0,77,78
 258 465 258 465 284.5 460.5 c 128,-1,79
 311 456 311 456 328.5 445 c 128,-1,80
 346 434 346 434 357 422 c 128,-1,81
 368 410 368 410 372 401 c 2,82,-1
 377 392 l 1,59,60
EndSplineSet
EndChar
